<svg xmlns="http://www.w3.org/2000/svg" viewBox="0 0 32 32" fill="none">
  <rect width="32" height="32" rx="6" fill="#D4AF37"/>
  <path d="M22 8H10C8.89543 8 8 8.89543 8 10V24C8 25.1046 8.89543 26 10 26H22C23.1046 26 24 25.1046 24 24V10C24 8.89543 23.1046 8 22 8Z" stroke="white" stroke-width="2" stroke-linecap="round" stroke-linejoin="round"/>
  <path d="M13 20L13.29 19.8C14.5108 18.9558 16.4892 18.9558 17.71 19.8L18 20" stroke="white" stroke-width="2" stroke-linecap="round" stroke-linejoin="round"/>
  <path d="M11.6667 12.6667H11.675" stroke="white" stroke-width="2" stroke-linecap="round" stroke-linejoin="round"/>
  <path d="M20.3333 12.6667H20.3417" stroke="white" stroke-width="2" stroke-linecap="round" stroke-linejoin="round"/>
  <path d="M16 12.6667H16.0083" stroke="white" stroke-width="2" stroke-linecap="round" stroke-linejoin="round"/>
  <path d="M16 16.6667H16.0083" stroke="white" stroke-width="2" stroke-linecap="round" stroke-linejoin="round"/>
  <path d="M20.3333 16.6667H20.3417" stroke="white" stroke-width="2" stroke-linecap="round" stroke-linejoin="round"/>
  <path d="M11.6667 16.6667H11.675" stroke="white" stroke-width="2" stroke-linecap="round" stroke-linejoin="round"/>
  <path d="M14 26V20.5M18 20.5V26" stroke="white" stroke-width="2" stroke-linecap="round" stroke-linejoin="round"/>
</svg>
